<svg xmlns="http://www.w3.org/2000/svg" viewBox="0 0 64 64">
  <defs>
    <linearGradient id="g" x1="0" x2="1" y1="0" y2="1">
      <stop offset="0%" stop-color="#1F6AA3"/>
      <stop offset="100%" stop-color="#0D3551"/>
    </linearGradient>
  </defs>
  <rect width="64" height="64" rx="14" fill="url(#g)"/>
  <path fill="none" stroke="#FAFBFC" stroke-width="3" stroke-linecap="round" stroke-linejoin="round"
        d="M22 14c-4 0-7 3-7 7 0 5 3 7 4 12 1 5 1 11 4 14 1.4 1.8 4 1.8 5-.8 1-2.6 1-7.2 2-7.2s1 4.6 2 7.2c1 2.6 3.6 2.6 5 .8 3-3 3-9 4-14 1-5 4-7 4-12 0-4-3-7-7-7-2.4 0-4 1-6 2-1.8.8-3 .8-4 .8s-2.2 0-4-.8c-2-1-3.6-2-6-2z"/>
  <circle cx="48" cy="22" r="4" fill="#B8842A"/>
</svg>
